PathFileType	4	(X/Y/Z)	D:\TRACE\spotREDO_2-26-24\spot_justArm_Motion_3_3-v60.trc
DataRate	CameraRate	NumFrames	NumMarkers	Units	OrigDataRate	OrigDataStartFrame	OrigNumFrames
100.00	100.00	      35	9	mm	100.00	5804	      6633
Frame#	Time	front left toe			Front right toe			aft left toe			aft right toe			Arm			FL body			FR body			AL Body			AR Body			
		X1	Y1	Z1	X2	Y2	Z2	X3	Y3	Z3	X4	Y4	Z4	X5	Y5	Z5	X6	Y6	Z6	X7	Y7	Z7	X8	Y8	Z8	X9	Y9	Z9	

5804	58.030	-181.03802	17.00756	-282.29935	312.98764	17.19990	-252.17763	-215.59070	29.64613	335.47772	272.66660	31.90060	365.70377	-30.73174	687.21747	-804.90991	10.99145	536.47998	-330.22818	165.74081	540.50781	-323.74979	-35.67221	573.17834	551.34326	111.92320	573.43298	559.84985	
5805	58.040	-180.97159	17.00256	-282.28400	312.98474	17.14909	-252.24913	-215.58357	29.67971	335.47336	272.86096	31.97075	365.72113	-30.79509	687.26819	-804.90314	10.90145	536.53546	-330.26532	165.57101	540.64594	-323.74133	-35.78118	573.10638	551.38696	111.83592	573.35333	559.87280	
5806	58.050	-180.83957	17.05727	-282.29004	313.19171	17.22594	-252.16327	-215.46042	29.70365	335.49869	273.11008	32.01273	365.77493	-32.72274	687.04407	-806.73163	10.70823	536.65839	-330.23004	165.48979	540.79108	-323.71118	-36.02269	572.87329	551.41821	111.65224	573.21594	559.89453	
5807	58.060	-180.62508	17.08962	-282.23453	313.31717	17.11942	-252.25529	-215.35066	29.72640	335.50931	273.43716	32.02422	365.87625	-32.71164	687.07855	-806.68695	10.64395	536.75879	-330.19830	165.46642	541.03693	-323.88614	-36.12103	572.66595	551.51727	111.53335	573.10077	559.90155	
5808	58.070	-180.34331	17.13688	-282.29736	313.60315	17.10122	-252.32526	-215.18291	29.67679	335.59146	273.74219	32.04990	365.96375	-32.66315	687.12469	-806.65881	10.51837	536.87848	-330.15527	165.46082	541.14899	-323.56961	-36.19199	572.38892	551.62329	111.49532	572.91339	559.99237	
5809	58.080	-180.16478	17.25899	-282.31525	313.87759	17.12725	-252.37372	-215.03868	29.63369	335.54187	274.00381	32.06192	366.02316	-32.63177	687.17188	-806.62286	10.44343	537.14532	-330.12335	165.39539	541.53235	-323.48779	-36.23378	572.14648	551.82013	111.23787	572.77417	559.99310	
5810	58.090	-180.05478	17.28786	-282.30255	313.92065	17.29690	-252.41943	-214.92937	29.66988	335.55447	274.21912	32.06732	366.07437	-32.58988	687.23102	-806.57867	10.47437	537.22253	-330.08374	165.30235	541.70398	-323.51593	-36.41403	571.90125	551.72565	111.08657	572.61420	559.99207	
5811	58.100	-179.96556	17.29260	-282.30573	314.01190	17.31599	-252.42320	-214.90562	29.68981	335.57114	274.28354	32.02737	366.12802	-32.64070	687.15491	-806.49420	10.42281	537.32794	-330.09360	165.26468	541.82904	-323.53107	-36.57391	571.74451	551.69299	110.93793	572.49445	559.96460	
5812	58.110	-179.94440	17.29170	-282.27414	314.06934	17.36781	-252.41898	-214.81743	29.67579	335.61728	274.31329	31.96232	366.13135	-32.65140	687.34717	-806.53961	10.34088	537.41400	-330.07193	165.24049	541.96478	-323.47736	-36.61227	571.56573	551.67572	110.85376	572.27637	559.94879	
5813	58.120	-179.87334	17.24359	-282.26099	314.45419	17.78797	-251.92937	-214.70035	29.62428	335.61087	274.35757	31.98954	366.12213	-32.69118	687.38837	-806.50397	10.32355	537.43115	-330.09949	165.22522	542.06989	-323.49704	-36.70404	571.44891	551.71094	111.29182	572.18439	560.52551	
5814	58.130	-179.71619	17.16632	-282.27957	314.65817	17.83006	-251.89313	-214.43130	29.46281	335.64478	274.51563	32.01865	366.08255	-32.66505	687.43115	-806.52191	10.20071	537.47986	-330.08112	165.18643	542.15247	-323.49896	-36.81951	571.37067	551.68958	111.06466	572.13379	560.38086	
5815	58.140	-179.50612	17.11494	-282.29199	314.77460	17.85341	-251.92117	-214.23972	29.30666	335.55905	274.57196	32.01210	366.09369	-32.64871	687.43378	-806.55975	10.23853	537.56000	-330.08167	165.18999	542.26849	-323.48499	-36.94701	571.32275	551.70117	111.03263	572.11530	560.37421	
5816	58.150	-179.30719	17.11864	-282.24915	314.71118	17.43804	-252.42641	-213.94113	29.38164	335.59232	274.61063	32.01047	365.99896	-32.54345	687.39282	-806.61230	10.22077	537.60022	-330.10251	165.19000	542.49438	-323.46686	-36.87027	571.09369	551.45856	110.89427	572.09924	560.36920	
5817	58.160	-179.13892	17.16363	-282.20731	314.98468	17.55996	-252.44225	-213.63374	29.29485	335.56812	274.71866	31.95619	366.02332	-32.46626	687.34106	-806.66779	10.28552	537.67340	-330.11826	165.20471	542.68115	-323.39642	-37.22768	571.09790	551.53510	110.98557	572.03687	560.49768	
5818	58.170	-178.97359	17.17833	-282.15790	315.08887	17.51661	-252.43057	-213.53601	29.25175	335.52164	274.84213	31.89023	365.92450	-36.91034	690.26630	-812.34100	10.14895	537.75598	-330.13416	165.15646	542.80811	-323.32428	-37.31268	570.99603	551.53351	110.84737	571.97467	560.48639	
5819	58.180	-178.75990	17.15209	-282.09464	315.18420	17.52058	-252.40300	-213.34871	29.16457	335.55099	274.87866	31.79300	365.91156	-32.44634	687.46704	-806.59235	10.22986	537.71954	-330.17361	165.14845	542.79742	-323.34564	-37.38021	570.94244	551.52728	110.68227	572.07092	560.47870	
5820	58.190	-178.58887	17.14074	-282.04672	315.37442	17.58727	-252.39034	-213.19537	29.09838	335.58304	275.04712	31.75985	365.89093	-32.48138	687.91156	-806.14331	10.43464	537.59564	-330.24417	165.27803	542.70184	-323.42368	-37.40169	571.02209	551.44366	110.64455	572.21246	560.29919	
5821	58.200	-178.46399	17.12864	-282.01352	315.55429	17.54565	-252.34146	-213.11502	29.11636	335.60437	275.22711	31.73202	365.89859	-32.75977	688.40326	-805.05536	10.56674	537.38373	-330.38818	165.40642	542.53418	-323.58994	-37.53011	571.12512	551.37476	110.40490	572.44189	560.16827	
5822	58.210	-178.21231	17.13448	-282.05530	315.92578	17.47599	-252.28775	-213.03662	29.12670	335.63000	275.60355	31.84441	365.92670	-33.10757	688.89600	-803.81458	10.84517	537.23596	-330.62802	165.76050	542.31384	-323.71591	-37.80126	571.26556	551.19495	110.23331	572.53809	560.07471	
5823	58.220	-177.97191	17.28545	-282.09998	316.28119	17.43693	-252.24832	-212.96765	29.12696	335.62103	275.85300	31.90188	365.98309	-34.30231	689.83655	-802.43054	11.47220	537.13104	-330.78400	166.15599	542.22455	-323.84439	-38.09677	571.26605	551.04633	109.89542	572.53687	560.00720	
5824	58.230	-177.57675	17.40570	-282.19357	316.69861	17.45562	-252.16519	-212.80432	29.00236	335.62875	275.94498	31.85320	366.02612	-33.93504	690.79218	-799.29547	11.99929	537.13287	-331.05765	166.74762	542.21631	-323.89001	-38.32851	571.01367	550.79443	109.17681	572.42371	559.43744	
5825	58.240	-177.25278	17.53214	-282.33658	316.82388	17.42891	-252.08307	-212.75085	29.04006	335.58151	276.26743	31.90589	366.02966	-35.86950	691.46411	-798.33997	12.43491	537.10394	-331.22629	167.41621	542.23621	-323.82651	-38.58178	570.88092	550.60284	108.91245	572.25061	559.30518	
5826	58.250	-176.83847	17.66578	-282.30966	317.09842	17.79925	-251.84264	-212.65160	29.03610	335.59970	276.53751	31.88549	366.09937	-39.36299	692.31030	-799.01587	12.81930	537.24518	-331.29816	167.71503	542.50720	-323.79236	-38.50246	570.75079	550.57184	108.88369	571.99023	559.32239	
5827	58.260	-176.64774	17.74971	-282.21085	317.26254	17.79710	-251.87204	-212.31169	28.86700	335.66299	276.83029	31.90932	366.14127	-41.31778	693.21301	-798.84698	12.89574	537.58142	-331.43893	167.97618	542.92719	-323.82330	-38.41460	570.61115	550.60553	109.04974	571.84924	559.30957	
5828	58.270	-176.52791	17.77243	-282.14777	317.46109	17.87415	-251.87860	-212.00038	28.63617	335.63449	277.00586	31.88527	366.11206	-42.96518	693.86267	-798.49402	12.85819	537.99799	-331.35522	167.95917	543.16113	-323.87656	-38.04044	570.38037	550.66870	109.58011	571.55475	559.41162	
5829	58.280	-176.52129	17.73045	-282.06616	317.38034	17.93544	-251.99252	-211.54205	28.75217	335.87808	277.15512	31.76716	366.09897	-43.94482	694.43475	-798.57623	12.55123	538.28418	-331.26334	167.64954	543.36188	-323.97006	-37.60046	570.29620	550.76727	109.86166	571.35846	559.51190	
5830	58.290	-176.49631	17.70884	-281.91803	317.37848	17.78775	-252.19957	-211.01703	28.71176	336.06390	277.35025	31.64697	366.11639	-45.21308	694.94580	-798.79266	12.08210	538.36993	-331.12723	167.08403	543.62311	-324.14136	-36.95501	570.17493	550.89362	110.49631	571.30725	559.45135	
5831	58.300	-176.31551	17.60306	-281.83511	317.68549	18.57860	-251.94044	-210.84462	28.87920	336.11560	277.65866	31.53753	366.09866	-43.72536	695.28833	-797.31287	11.57334	538.48401	-330.93338	166.60013	543.83826	-324.24567	-36.20037	569.89752	551.03931	111.54436	571.26404	559.50299	
5832	58.310	-176.22601	17.60196	-281.77911	317.45587	18.39210	-252.42578	-210.46147	28.85420	336.09100	277.76086	31.39034	366.04544	-45.41442	695.37964	-799.27808	11.08767	538.56030	-330.76941	166.06828	543.99475	-324.32233	-35.45884	569.77539	551.24548	112.27390	571.20972	559.86621	
5833	58.320	-176.16800	17.53622	-281.71033	317.57028	18.48143	-252.49957	-210.29333	28.94694	336.12549	277.98312	31.29545	365.95078	-44.80064	695.37683	-799.43701	10.43736	538.56580	-330.67755	165.43747	544.18494	-324.26285	-34.80268	569.61664	551.47620	113.06393	571.10693	559.76111	
5834	58.330	-176.11847	17.45070	-281.64038	317.67761	18.52592	-252.52139	-210.22714	29.17223	336.08688	278.43259	31.33024	365.93182	-44.11966	695.22925	-799.53790	9.79500	538.64679	-330.72870	164.99815	544.32092	-324.40726	-34.20526	569.50305	551.75604	113.59610	571.04279	559.71979	
5835	58.340	-176.03160	17.33419	-281.60208	317.91013	18.51121	-252.64218	-210.14827	29.23460	336.07690	278.86600	31.38905	365.97552	-42.60453	694.93774	-799.86206	9.32195	538.67920	-330.69751	164.74895	544.38373	-324.48096	-34.10146	569.43890	551.80188	113.88383	570.95630	559.76221	
5836	58.350	-175.84805	17.32485	-281.56891	318.09320	18.53777	-252.66071	-209.94373	29.15542	336.05405	279.00061	31.43853	366.01761	-41.19799	694.63110	-799.94965	9.05042	538.78284	-330.73260	164.48746	544.55530	-324.64999	-34.02669	569.36188	551.84979	114.06671	570.85083	559.77960	
5837	58.360	-175.67599	17.35086	-281.61029	318.26541	18.48250	-252.66479	-209.78563	29.07488	336.04074	279.03516	31.45518	366.02438	-39.81181	694.42383	-800.30347	9.09056	538.83337	-330.67453	164.55391	544.62488	-324.64148	-34.19668	569.27954	551.76477	113.87762	570.84955	559.76959	
5838	58.370	-175.45978	17.36050	-281.59531	318.43304	18.46752	-252.63394	-209.67636	28.93861	336.05975	279.07977	31.45764	366.04593	-36.79700	694.22485	-798.66473	9.21555	538.94122	-330.65936	164.66678	544.62299	-324.58386	-34.41534	569.27930	551.69550	113.44601	570.88464	559.81104	
